<svg width="137" height="35" viewBox="0 0 137 35" fill="none" xmlns="http://www.w3.org/2000/svg">
<g clip-path="url(#clip0_2_3)">
<path d="M4.48864 35L0.602273 0.0909081H6.14205L8.46023 27.125H8.78409L20.3409 0.0909081H25.8295L28.4205 27.142H28.7614L40.0114 0.0909081H45.5682L30.0739 35H24.7727L21.7898 8.85227H21.517L9.80682 35H4.48864ZM67.7486 9.46591C67.7599 7.75 67.2031 6.4375 66.0781 5.52841C64.9645 4.61932 63.4077 4.16477 61.4077 4.16477C59.9759 4.16477 58.6974 4.39205 57.5724 4.84659C56.4588 5.28977 55.5497 5.90341 54.8452 6.6875C54.152 7.46023 53.7259 8.34091 53.5668 9.32955C53.419 10.1591 53.4929 10.875 53.7884 11.4773C54.0952 12.0795 54.5327 12.5852 55.1009 12.9943C55.6804 13.392 56.3168 13.7273 57.0099 14C57.7031 14.2614 58.3736 14.4773 59.0213 14.6477L62.294 15.5341C63.3509 15.8068 64.4247 16.1761 65.5156 16.642C66.6065 17.108 67.5895 17.7216 68.4645 18.483C69.3395 19.2443 69.9929 20.1875 70.4247 21.3125C70.8565 22.4375 70.9418 23.7841 70.6804 25.3523C70.3395 27.3295 69.5384 29.0852 68.277 30.6193C67.0156 32.1534 65.3509 33.3636 63.2827 34.25C61.2145 35.1364 58.8168 35.5795 56.0895 35.5795C53.4759 35.5795 51.277 35.1648 49.4929 34.3352C47.7202 33.5057 46.419 32.3295 45.5895 30.8068C44.7599 29.2727 44.4645 27.4545 44.7031 25.3523H50.0043C49.8793 26.6136 50.1065 27.6648 50.6861 28.5057C51.277 29.3352 52.1065 29.9545 53.1747 30.3636C54.2429 30.7614 55.4531 30.9602 56.8054 30.9602C58.3054 30.9602 59.6747 30.7273 60.9134 30.2614C62.152 29.7841 63.1747 29.125 63.9815 28.2841C64.7884 27.4318 65.2827 26.4375 65.4645 25.3011C65.6463 24.267 65.4986 23.4205 65.0213 22.7614C64.5554 22.1023 63.8509 21.5568 62.9077 21.125C61.9759 20.6932 60.9134 20.3125 59.7202 19.983L55.7827 18.858C53.1122 18.0966 51.0895 16.9773 49.7145 15.5C48.3395 14.0227 47.8452 12.0682 48.2315 9.63636C48.5724 7.625 49.4134 5.86932 50.7543 4.36932C52.0952 2.86932 53.7656 1.70454 55.7656 0.875C57.7656 0.03409 59.9361 -0.386365 62.277 -0.386365C64.6406 -0.386365 66.652 0.03409 68.3111 0.875C69.9702 1.71591 71.1974 2.875 71.9929 4.35227C72.7884 5.82955 73.0668 7.53409 72.8281 9.46591H67.7486ZM86.8267 35H75.3722L81.1676 0.0909081H92.6733C96.1051 0.0909081 98.9403 0.806817 101.179 2.23864C103.418 3.65909 104.986 5.69318 105.884 8.34091C106.781 10.9773 106.923 14.1307 106.31 17.8011C105.719 21.392 104.56 24.4716 102.832 27.0398C101.116 29.5966 98.9063 31.5625 96.2017 32.9375C93.4972 34.3125 90.3722 35 86.8267 35ZM81.4233 30.3977H87.0483C89.7074 30.3977 92.0085 29.8807 93.9517 28.8466C95.9063 27.8125 97.4915 26.3125 98.7074 24.3466C99.9233 22.3807 100.764 19.9886 101.23 17.1705C101.685 14.4886 101.645 12.2216 101.111 10.3693C100.577 8.50568 99.5426 7.09659 98.0085 6.14205C96.4744 5.17614 94.4347 4.69318 91.8892 4.69318H85.6676L81.4233 30.3977ZM111.227 35H105.636L123.994 0.0909081H130.08L136.847 35H131.256L126.159 6.43182H125.886L111.227 35ZM114.432 21.3295H132.568L131.818 25.7614H113.682L114.432 21.3295Z" fill="#37D75B"/>
</g>
<defs>
<clipPath id="clip0_2_3">
<rect width="155" height="69" fill="white" transform="translate(-7 -17)"/>
</clipPath>
</defs>
</svg>
